<?xml version="1.0" encoding="UTF-8" standalone="no"?>
<svg
   xmlns:dc="http://purl.org/dc/elements/1.1/"
   xmlns:cc="http://creativecommons.org/ns#"
   xmlns:rdf="http://www.w3.org/1999/02/22-rdf-syntax-ns#"
   xmlns:svg="http://www.w3.org/2000/svg"
   xmlns="http://www.w3.org/2000/svg"
   xmlns:sodipodi="http://sodipodi.sourceforge.net/DTD/sodipodi-0.dtd"
   xmlns:inkscape="http://www.inkscape.org/namespaces/inkscape"
   width="320"
   height="320"
   fill="currentColor"
   class="bi bi-droplet"
   viewBox="0 0 16 16"
   version="1.1"
   id="svg6"
   sodipodi:docname="s.svg"
   inkscape:version="1.0.2-2 (e86c870879, 2021-01-15)">
  <metadata
     id="metadata12">
    <rdf:RDF>
      <cc:Work
         rdf:about="">
        <dc:format>image/svg+xml</dc:format>
        <dc:type
           rdf:resource="http://purl.org/dc/dcmitype/StillImage" />
      </cc:Work>
    </rdf:RDF>
  </metadata>
  <defs
     id="defs10" />
  <sodipodi:namedview
     pagecolor="#ffffff"
     bordercolor="#666666"
     borderopacity="1"
     objecttolerance="10"
     gridtolerance="10"
     guidetolerance="10"
     inkscape:pageopacity="0"
     inkscape:pageshadow="2"
     inkscape:window-width="1858"
     inkscape:window-height="1057"
     id="namedview8"
     showgrid="false"
     inkscape:zoom="2.78125"
     inkscape:cx="160"
     inkscape:cy="160"
     inkscape:window-x="-8"
     inkscape:window-y="-8"
     inkscape:window-maximized="1"
     inkscape:current-layer="svg6" />
  <path
     fill-rule="evenodd"
     d="M7.21.8C7.69.295 8 0 8 0c.109.363.234.708.371 1.038.812 1.946 2.073 3.35 3.197 4.6C12.878 7.096 14 8.345 14 10a6 6 0 0 1-12 0C2 6.668 5.58 2.517 7.21.8zm.413 1.021A31.25 31.25 0 0 0 5.794 3.99c-.726.95-1.436 2.008-1.96 3.07C3.304 8.133 3 9.138 3 10a5 5 0 0 0 10 0c0-1.201-.796-2.157-2.181-3.7l-.03-.032C9.75 5.11 8.5 3.72 7.623 1.82z"
     id="path2" />
  <path
     fill-rule="evenodd"
     d="M4.553 7.776c.82-1.641 1.717-2.753 2.093-3.13l.708.708c-.29.29-1.128 1.311-1.907 2.87l-.894-.448z"
     id="path4" />
  <path
     style="fill:#ffffff;stroke-width:0.359551"
     d="m 153.52809,299.65104 c -9.74248,-0.98396 -14.66501,-1.87157 -21.57829,-3.89091 -30.65028,-8.95282 -55.59581,-32.64404 -66.165419,-62.83848 -1.873243,-5.35134 -3.615589,-12.39236 -4.53387,-18.32189 -1.079592,-6.97116 -1.178124,-20.30675 -0.196203,-26.55482 3.6414,-23.17062 15.316242,-49.82917 35.008358,-79.93873 10.256824,-15.682846 23.107624,-32.776793 37.482764,-49.859019 8.35777,-9.931689 18.63494,-21.455566 18.87162,-21.160915 0.0562,0.06996 1.87779,3.605859 4.04796,7.857544 9.82343,19.245492 21.67086,36.778913 38.38116,56.80161 5.22344,6.25886 9.78841,11.47733 21.0796,24.09727 15.01075,16.77721 22.01389,25.12263 27.97779,33.34025 8.125,11.19537 13.04256,21.40288 15.03674,31.21212 0.90033,4.42864 0.89341,16.81702 -0.0128,22.99819 -3.25298,22.18731 -12.94803,41.65932 -28.46195,57.16439 -15.59762,15.5887 -35.62715,25.48069 -57.53589,28.41526 -4.1229,0.55224 -16.39939,0.98133 -19.40152,0.67813 z M 111.83452,159.37079 c 9.90714,-18.94185 23.55796,-39.36671 33.41951,-50.00352 l 2.10751,-2.27318 -7.27802,-7.25491 -7.278,-7.25491 -1.62965,1.797752 C 118.21731,108.67732 102.77542,131.79969 92.428717,152.40121 l -1.646827,3.27903 8.901191,4.47762 c 4.895649,2.46269 9.008389,4.48633 9.139399,4.49696 0.13102,0.0106 1.48644,-2.36718 3.01204,-5.28403 z"
     id="path14"
     transform="scale(0.05)" />
</svg>
