<svg id="Bandera_mexico" data-name="Bandera mexico" xmlns="http://www.w3.org/2000/svg" viewBox="0 0 50 32.56"><defs><style>.cls-1{fill:#007a3e;}.cls-2{fill:#fff;}.cls-3{fill:#e30520;}.cls-4{fill:#0090d2;}.cls-5{fill:#fbbe00;}.cls-6{fill:none;}.cls-7{fill:#80612d;}.cls-8{fill:#ce7400;}.cls-9{fill:#5f9222;}.cls-10{fill:#b06510;}.cls-11{fill:#f8b884;}</style></defs><title>Bandera mexico</title><path class="cls-1" d="M938.31,523.69h12.5v32.56h-12.5a3.18,3.18,0,0,1-3.2-3.2V526.89A3.18,3.18,0,0,1,938.31,523.69Z" transform="translate(-935.11 -523.69)"/><path class="cls-2" d="M950.81,523.69h18.61v32.56H950.81Z" transform="translate(-935.11 -523.69)"/><path class="cls-3" d="M969.41,523.69h12.5a3.18,3.18,0,0,1,3.2,3.2v26.16a3.18,3.18,0,0,1-3.2,3.2h-12.5Z" transform="translate(-935.11 -523.69)"/><path class="cls-4" d="M958.81,542.3a.83.83,0,0,1-1-.71c-.07.34-.07.52-.33.45s-1.08-.43-1.27-.5-.24.1.08.26.62.35.63.46-.28.26-.38.31a6.42,6.42,0,0,1,1.2.14c.32.07.34.29-.18.63,1.34-.14,1.29.49,2,.49h1.27c.62,0,.16-.26.75-.41.42-.1.84-.24,1.16-.34-.33-.07-.51-.15-.51-.22a4.67,4.67,0,0,1,1-.44,1.38,1.38,0,0,0-.71,0,4.57,4.57,0,0,1-1.61.09A6.84,6.84,0,0,1,958.81,542.3Z" transform="translate(-935.11 -523.69)"/><path class="cls-5" d="M961.14,543.5a.23.23,0,0,0,.37,0,.22.22,0,0,0-.07-.31,1.06,1.06,0,0,0,0-.72.22.22,0,0,0,.07-.31.23.23,0,0,0-.37,0,8.69,8.69,0,0,0-2.2,0,.23.23,0,0,0-.37,0,.22.22,0,0,0,.07.31,1.05,1.05,0,0,0,0,.72.22.22,0,0,0-.07.31.23.23,0,0,0,.37,0A4.57,4.57,0,0,0,961.14,543.5Z" transform="translate(-935.11 -523.69)"/><path class="cls-6" d="M958.78,543.27c.13-.07.27.09.16.24" transform="translate(-935.11 -523.69)"/><path class="cls-6" d="M958.94,542.14c.11.15,0,.31-.16.24" transform="translate(-935.11 -523.69)"/><path class="cls-6" d="M961.29,543.27c-.13-.07-.27.09-.16.24" transform="translate(-935.11 -523.69)"/><path class="cls-6" d="M961.14,542.14c-.11.15,0,.31.16.24" transform="translate(-935.11 -523.69)"/><path class="cls-6" d="M959,542.13c.48,0,.62,1.54,1.14,1.51" transform="translate(-935.11 -523.69)"/><path class="cls-6" d="M959.3,542.1c.49,0,.71,1.6,1.26,1.52" transform="translate(-935.11 -523.69)"/><path class="cls-6" d="M959.64,542.08c.49,0,.75,1.58,1.24,1.49" transform="translate(-935.11 -523.69)"/><path class="cls-2" d="M956.53,542.35a.21.21,0,1,0,0,.43A.21.21,0,1,0,956.53,542.35Z" transform="translate(-935.11 -523.69)"/><path class="cls-2" d="M957.7,541.41a.21.21,0,1,0,0,.43A.21.21,0,1,0,957.7,541.41Z" transform="translate(-935.11 -523.69)"/><path class="cls-2" d="M962.55,542.89a.21.21,0,1,0,0,.43A.21.21,0,1,0,962.55,542.89Z" transform="translate(-935.11 -523.69)"/><path class="cls-7" d="M956.13,541.38a.39.39,0,0,0-.46,0c-.07.1.1.29.28.37a.33.33,0,0,0,.39-.06C956.38,541.67,956.33,541.48,956.13,541.38Z" transform="translate(-935.11 -523.69)"/><path class="cls-7" d="M957.44,543.1c-.19.06-.32.23-.3.34s.28.14.46.08a.28.28,0,0,0,.21-.31C957.77,543.09,957.66,543,957.44,543.1Z" transform="translate(-935.11 -523.69)"/><path class="cls-7" d="M963,542.65c.19-.05.41-.25.36-.36s-.3-.11-.48-.05-.28.21-.25.29S962.82,542.71,963,542.65Z" transform="translate(-935.11 -523.69)"/><path class="cls-8" d="M963.59,543.81a.71.71,0,0,0-.13-.42.13.13,0,0,0,.06-.23.16.16,0,0,0-.21,0,.14.14,0,0,0,.07.21c0,.09.1.4,0,.52a1.11,1.11,0,0,1,.48.15c0,.1.09.18.14.17a.16.16,0,0,0,.13-.16.14.14,0,0,0-.23-.08C963.88,543.91,963.67,543.84,963.59,543.81Z" transform="translate(-935.11 -523.69)"/><path class="cls-8" d="M965.65,542.15a.74.74,0,0,0-.27-.36.13.13,0,0,0,0-.24.16.16,0,0,0-.19.09c0,.05,0,.19.14.18s.23.34.2.48a1.12,1.12,0,0,1,.5,0c0,.11.14.14.19.12a.15.15,0,0,0,.07-.19.14.14,0,0,0-.25,0A.89.89,0,0,0,965.65,542.15Z" transform="translate(-935.11 -523.69)"/><path class="cls-8" d="M966.81,539.92a.93.93,0,0,0-.31-.25.13.13,0,0,0-.13-.2.16.16,0,0,0-.13.16.15.15,0,0,0,.21.09,1,1,0,0,1,.31.39,1,1,0,0,1,.47-.18.14.14,0,1,0,.2-.18.13.13,0,0,0-.22.11A1,1,0,0,0,966.81,539.92Z" transform="translate(-935.11 -523.69)"/><path class="cls-1" d="M966.7,540.18a1.09,1.09,0,0,0-.11-.93c-.23-.32,0-.73-.11-.93a2.83,2.83,0,0,1,.49.64c.11-.21.4-.64.62-.7a1.43,1.43,0,0,0,.05.44c.05.22-.21.54-.43.74a.94.94,0,0,0-.43.8" transform="translate(-935.11 -523.69)"/><path class="cls-1" d="M966.75,540.15c.12-.82-.12-1.81.3-2.14a1.23,1.23,0,0,1,.12,1.27A1.91,1.91,0,0,0,966.75,540.15Z" transform="translate(-935.11 -523.69)"/><path class="cls-1" d="M965.24,542.46c.29-.24.51-.4.45-.84s.09-1.27.63-1.38a3.33,3.33,0,0,1,0,.76,1.2,1.2,0,0,1,.86-.51c-.35.33-.47,1.13-.9,1.3a2.47,2.47,0,0,0-1,.79" transform="translate(-935.11 -523.69)"/><path class="cls-1" d="M965.45,542.37a1.38,1.38,0,0,0,.4-.83,2.17,2.17,0,0,1,.93-1.52,1.81,1.81,0,0,1-.41,1.39C966,541.82,965.57,542.22,965.45,542.37Z" transform="translate(-935.11 -523.69)"/><path class="cls-1" d="M963.33,543.9a1.1,1.1,0,0,0,.57-.64c.23-.64.89-.89.91-1.15a1.38,1.38,0,0,1-.08.87,1.73,1.73,0,0,1,.8-.31c-.15.29,0,.66-.56.84s-.81-.09-1.66.49" transform="translate(-935.11 -523.69)"/><path class="cls-1" d="M963.34,543.93a8.12,8.12,0,0,0,1-1,1.8,1.8,0,0,1,1.2-.7,2.1,2.1,0,0,1-1.35,1.27A2.58,2.58,0,0,0,963.34,543.93Z" transform="translate(-935.11 -523.69)"/><path class="cls-1" d="M961.14,544.37c.56-.1.69-.89,1.8-.74-.16.14-.29.51-.53.64a3.07,3.07,0,0,1,.94.29c-.31,0-1,.5-1.6.23S961.26,544.47,961.14,544.37Z" transform="translate(-935.11 -523.69)"/><path class="cls-1" d="M961.41,544.61a2,2,0,0,0,2.09-.77,3,3,0,0,0-1.45.33,1.49,1.49,0,0,1-.91.11,3,3,0,0,0-2.36.44c-.06,0,.07.18.15.12A2.21,2.21,0,0,1,961.41,544.61Z" transform="translate(-935.11 -523.69)"/><path class="cls-8" d="M956.48,543.84a1.16,1.16,0,0,0-.09-.42c-.05-.1-.08-.33,0-.34s.18.16.13.29a.78.78,0,0,0,.09.56" transform="translate(-935.11 -523.69)"/><path class="cls-8" d="M956.42,543.35c-.14,0-.17,0-.12.12a.19.19,0,0,0,.31.05c.09-.14,0-.22,0-.19A.25.25,0,0,1,956.42,543.35Z" transform="translate(-935.11 -523.69)"/><path class="cls-8" d="M956.45,543.88a1.23,1.23,0,0,1-.44,0c-.11,0-.35,0-.32.11s.2.12.32,0a.84.84,0,0,1,.58-.06" transform="translate(-935.11 -523.69)"/><path class="cls-8" d="M956,544c-.08-.11,0-.17.09-.15s.22.19.13.28-.21.09-.2,0A.23.23,0,0,0,956,544Z" transform="translate(-935.11 -523.69)"/><path class="cls-8" d="M954.43,542.13a1.24,1.24,0,0,0,0-.45c0-.11,0-.34.1-.32s.13.19.06.32a.79.79,0,0,0,0,.57" transform="translate(-935.11 -523.69)"/><path class="cls-8" d="M954.49,541.62c-.12-.08-.17,0-.15.09a.18.18,0,0,0,.29.12c.12-.12.08-.21,0-.19A.24.24,0,0,1,954.49,541.62Z" transform="translate(-935.11 -523.69)"/><path class="cls-8" d="M954.43,542.15a1.37,1.37,0,0,1-.45,0c-.11,0-.34,0-.34.06s.18.15.31.1a1.08,1.08,0,0,1,.66,0" transform="translate(-935.11 -523.69)"/><path class="cls-8" d="M953.91,542.15c-.06-.13,0-.17.11-.13a.18.18,0,0,1,.08.3c-.13.1-.22.05-.2,0A.23.23,0,0,0,953.91,542.15Z" transform="translate(-935.11 -523.69)"/><path class="cls-8" d="M953.16,539.95a1.51,1.51,0,0,0,.23-.42c0-.11.14-.31.23-.25s0,.23-.08.31a1.16,1.16,0,0,0-.32.61" transform="translate(-935.11 -523.69)"/><path class="cls-8" d="M953.45,539.49c-.08-.12-.15-.09-.17,0a.18.18,0,0,0,.21.23c.16-.06.16-.16.1-.17A.24.24,0,0,1,953.45,539.49Z" transform="translate(-935.11 -523.69)"/><path class="cls-8" d="M953.09,539.95a1.32,1.32,0,0,1-.37-.25c-.07-.09-.27-.21-.32-.12s.07.22.22.24a1,1,0,0,1,.54.36" transform="translate(-935.11 -523.69)"/><path class="cls-8" d="M952.65,539.69c0-.14.09-.15.16-.06a.18.18,0,0,1-.08.3c-.17,0-.22-.07-.17-.11A.24.24,0,0,0,952.65,539.69Z" transform="translate(-935.11 -523.69)"/><path class="cls-1" d="M953.28,540.44c0-.27-.26-.91-.15-1s.11-.15,0-.2,0-.17.12-.21.25-.21.12-.2-.34,0-.22-.09.32-.2.29-.32-.09-.07-.17,0-.16,0-.07-.08,0-.16.11-.22.05-.14,0-.13-.19.15-.25.08-.12-.13-.19,0,0,.3,0,.38-.14.11-.21,0-.18-.06-.19.05a.44.44,0,0,0,.12.29c.08.11.06.19-.08.13s-.21-.06-.21,0,.05.15.23.22.21.1.22.19.18.13.23.34a3,3,0,0,1,.16.85" transform="translate(-935.11 -523.69)"/><path class="cls-1" d="M954.85,542.35c-.49-.26-.67-.46-.69-.73s0-.34.07-.43,0-.19-.07-.11-.21.06-.18-.09.09-.34,0-.46-.19-.11-.23,0a.16.16,0,0,1-.14.14c-.07,0-.07-.16,0-.26s-.07-.17-.12-.09-.17.17-.22,0-.18-.06-.15,0-.14.05-.09.11.08.14,0,.12-.24-.07-.21,0,.29.2.46.24.18.11.1.13a.46.46,0,0,1-.24,0c-.12,0-.14.07,0,.17a.84.84,0,0,0,.44.14c.18,0,.19.15.11.14s-.22-.05-.24,0,.19.16.35.14.17,0,.21.06a2.47,2.47,0,0,0,.85.7" transform="translate(-935.11 -523.69)"/><path class="cls-1" d="M956.86,544a1.12,1.12,0,0,1-.78-.8c0-.23-.07-.17-.1-.11s-.14.13-.18,0,0-.4-.11-.5-.18-.14-.23,0-.15.08-.15-.07,0-.3-.06-.37-.12-.06-.12.08-.07.18-.14,0-.19-.21-.18-.06.07.28-.06.27-.23,0-.12.11a.48.48,0,0,0,.25.13c.07,0,.08.1,0,.13a.27.27,0,0,1-.22,0c-.07,0-.17,0-.07.13a.59.59,0,0,0,.46.17c.2,0,.27.09.15.15a.47.47,0,0,1-.34.05c-.13,0-.16.09,0,.19a.6.6,0,0,0,.52,0c.16-.05.17,0,.15.06s0,.12.13.08a.48.48,0,0,1,.47,0,5,5,0,0,0,.59.41" transform="translate(-935.11 -523.69)"/><path class="cls-1" d="M961.23,544.8a2.85,2.85,0,0,0-2.28-.57c-.16,0-.27.09-.37-.06s-.14-.09-.18,0-.15,0-.25-.11-.18-.22-.29-.21-.16.07-.1.18,0,.19-.1.09-.24-.24-.35-.23-.22,0-.15.12.07.22-.06.12a.45.45,0,0,0-.35-.13c-.18,0-.05.18-.21.22a.57.57,0,0,0-.25.13c0,.05,0,.2.31.14s.37,0,.34.07,0,.23.17.19.39-.25.49-.16,0,.13-.07.19.11.17.23.08.25-.24.33-.21,0,.13,0,.19,0,.18.14.11.23-.48.67-.43c.13-.23,1.16-.35,2,.33a.24.24,0,0,0,.21.05C961.19,544.86,961.31,544.86,961.23,544.8Z" transform="translate(-935.11 -523.69)"/><path class="cls-4" d="M960.12,544.85c.19.14.42.26.47.41a.56.56,0,0,0-.14.14,5.92,5.92,0,0,0-.47-.4A1,1,0,0,0,960.12,544.85Z" transform="translate(-935.11 -523.69)"/><path class="cls-4" d="M959.63,544.59c-.2.18-.61.27-.7.63a.58.58,0,0,1,.26,0c0-.18.45-.39.61-.54A.37.37,0,0,1,959.63,544.59Z" transform="translate(-935.11 -523.69)"/><path class="cls-4" d="M959.78,544.65c-.17,0-.24-.09-.24-.31s0-.29.25-.3.07.15.07.29S959.88,544.66,959.78,544.65Z" transform="translate(-935.11 -523.69)"/><path class="cls-3" d="M960.33,544.58c.19.19.62.27.71.64a.58.58,0,0,0-.26,0c0-.17-.38-.36-.57-.5v-.05A.27.27,0,0,0,960.33,544.58Z" transform="translate(-935.11 -523.69)"/><path class="cls-3" d="M960.22,544.63c-.09.37-.51.54-.71.77a.56.56,0,0,0-.14-.14c.07-.22.52-.37.67-.61Z" transform="translate(-935.11 -523.69)"/><path class="cls-3" d="M960.08,544.65c.22,0,.32-.07.32-.32s0-.29-.31-.3c.08,0,.07.15.07.29S960.18,544.67,960.08,544.65Z" transform="translate(-935.11 -523.69)"/><path class="cls-2" d="M960,544.65c-.14.23-.6.39-.67.61a.42.42,0,0,0-.19-.07c0-.18.45-.39.62-.54Z" transform="translate(-935.11 -523.69)"/><path class="cls-2" d="M960.12,544.85c.19.14.42.26.47.41a.41.41,0,0,1,.19-.07c0-.17-.38-.36-.57-.5A.72.72,0,0,1,960.12,544.85Z" transform="translate(-935.11 -523.69)"/><path class="cls-2" d="M960.08,544.65c.1,0,.07-.19.07-.33s0-.3-.07-.29h-.3c.08,0,.07.15.07.29s0,.34-.08.32h.3Z" transform="translate(-935.11 -523.69)"/><path class="cls-3" d="M955.22,539.26c-.13.12-.37,0-.47-.11a.3.3,0,0,1,0-.47c.16-.15.36-.06.48.13A.33.33,0,0,1,955.22,539.26Z" transform="translate(-935.11 -523.69)"/><path class="cls-3" d="M954.49,538.77c-.13-.1-.13-.16,0-.23s.14-.06.22,0,.11.2.06.25S954.61,538.87,954.49,538.77Z" transform="translate(-935.11 -523.69)"/><path class="cls-3" d="M954.48,538.9c-.12,0-.14-.08-.11-.15s.08-.07.17,0,.15.09.13.14S954.6,538.93,954.48,538.9Z" transform="translate(-935.11 -523.69)"/><path class="cls-3" d="M954.85,538.46c0-.16,0-.2.15-.19s.14.08.11.19-.06.21-.15.21S954.85,538.62,954.85,538.46Z" transform="translate(-935.11 -523.69)"/><polygon class="cls-3" points="19.42 14.37 19.6 14.68 19.52 14.72 19.34 14.42 19.42 14.37"/><path class="cls-3" d="M954.46,537.89a.12.12,0,0,0,0,.24A.12.12,0,0,0,954.46,537.89Z" transform="translate(-935.11 -523.69)"/><path class="cls-3" d="M954.65,538.63c-.1-.14-.08-.21,0-.27s.17,0,.23.1,0,.25,0,.29S954.74,538.77,954.65,538.63Z" transform="translate(-935.11 -523.69)"/><line class="cls-6" x1="19.78" y1="16.13" x2="19.62" y2="16.06"/><line class="cls-6" x1="20.55" y1="15.35" x2="20.57" y2="15.57"/><line class="cls-6" x1="21.09" y1="16.17" x2="21.25" y2="16"/><line class="cls-6" x1="20.44" y1="17" x2="20.77" y2="16.87"/><line class="cls-6" x1="19.95" y1="16.71" x2="20.22" y2="16.65"/><line class="cls-6" x1="20.15" y1="16.59" x2="19.89" y2="16.6"/><line class="cls-6" x1="21.62" y1="16.39" x2="21.53" y2="16.25"/><line class="cls-6" x1="21.1" y1="17.37" x2="21.32" y2="17.32"/><line class="cls-6" x1="21.76" y1="17.61" x2="21.92" y2="17.49"/><line class="cls-6" x1="21.87" y1="17.67" x2="22.03" y2="17.51"/><line class="cls-6" x1="23.18" y1="18.05" x2="23.36" y2="17.88"/><line class="cls-6" x1="23.86" y1="18.17" x2="24.06" y2="17.97"/><line class="cls-6" x1="23.32" y1="16.83" x2="23.02" y2="16.69"/><line class="cls-6" x1="23.45" y1="16.47" x2="23.62" y2="16.74"/><line class="cls-6" x1="23.59" y1="16.45" x2="23.69" y2="16.72"/><line class="cls-6" x1="24.25" y1="16.57" x2="24.28" y2="16.83"/><line class="cls-6" x1="24.42" y1="16.59" x2="24.41" y2="16.85"/><line class="cls-6" x1="24.47" y1="18.09" x2="24.54" y2="17.92"/><line class="cls-6" x1="24.66" y1="17.9" x2="24.59" y2="18.15"/><path class="cls-6" d="M962.43,541.87a.46.46,0,0,0,.11.22" transform="translate(-935.11 -523.69)"/><path class="cls-6" d="M963,541.06a.76.76,0,0,1,.05-.28" transform="translate(-935.11 -523.69)"/><line class="cls-6" x1="28.33" y1="17.14" x2="28.45" y2="16.88"/><line class="cls-6" x1="28.37" y1="18.25" x2="28.63" y2="18.36"/><line class="cls-6" x1="28.46" y1="18.21" x2="28.7" y2="18.25"/><line class="cls-6" x1="28.95" y1="17.92" x2="29.24" y2="17.88"/><line class="cls-6" x1="26.27" y1="18.2" x2="26.54" y2="18.35"/><line class="cls-6" x1="26.36" y1="18.18" x2="26.69" y2="18.26"/><path class="cls-1" d="M956.25,540.64c-.75,0-1.35-.41-1.39-.87a.55.55,0,0,1,.79-.56c.69.3.51,1,.91,1.06Z" transform="translate(-935.11 -523.69)"/><path class="cls-1" d="M958.18,540.77c-.35-.33-1.13-.94-1.64-.63s-.35.68-.21.84a2.29,2.29,0,0,0,1.77.17Z" transform="translate(-935.11 -523.69)"/><path class="cls-1" d="M960.68,541c-1-.4-1.73-.77-2.3-.44a.57.57,0,0,0,0,1,3.32,3.32,0,0,0,1.83,0C960.63,541.45,960.75,541.24,960.68,541Z" transform="translate(-935.11 -523.69)"/><path class="cls-1" d="M962.26,541.44c.56,0,.53-.14.68-.34a.7.7,0,0,1,.93-.21c.37.29.44.67,0,.91a1.38,1.38,0,0,1-1.19.16c-.45-.14-.72-.22-.81-.24A.69.69,0,0,0,962.26,541.44Z" transform="translate(-935.11 -523.69)"/><path class="cls-1" d="M960.78,542.58c0-1,1.64-.41,1.52-1.43-.05-.46-.89-.4-1.57-.24s-.72.87-.75,1.7c0,.06.13.06.4.06S960.79,542.68,960.78,542.58Z" transform="translate(-935.11 -523.69)"/><path class="cls-3" d="M964,540.82c-.21.12-.26.27-.2.39s.31.09.47,0,.26-.28.18-.39S964.21,540.72,964,540.82Z" transform="translate(-935.11 -523.69)"/><polygon class="cls-3" points="29.88 16.72 29.63 16.97 29.57 16.91 29.82 16.66 29.88 16.72"/><path class="cls-3" d="M965.15,540.29c0-.15-.29-.08-.24.07S965.19,540.45,965.15,540.29Z" transform="translate(-935.11 -523.69)"/><path class="cls-3" d="M964.3,540.54c.08-.14.14-.18.24-.12s.07.14,0,.24-.15.16-.23.12S964.22,540.67,964.3,540.54Z" transform="translate(-935.11 -523.69)"/><path class="cls-3" d="M964.64,540.81c.16,0,.23,0,.25.1s-.07.14-.19.15-.23,0-.24-.09S964.48,540.83,964.64,540.81Z" transform="translate(-935.11 -523.69)"/><path class="cls-3" d="M964.5,540.63c.13-.12.2-.12.27,0s0,.17-.1.22-.21.09-.26,0S964.39,540.74,964.5,540.63Z" transform="translate(-935.11 -523.69)"/><path class="cls-9" d="M955.29,539.54c-.14.07-.07.2.07.13S955.43,539.47,955.29,539.54Z" transform="translate(-935.11 -523.69)"/><path class="cls-9" d="M955.68,539.5c-.15,0-.11.18,0,.14S955.84,539.46,955.68,539.5Z" transform="translate(-935.11 -523.69)"/><path class="cls-9" d="M955.17,539.9c0,.15.13.17.15,0S955.19,539.74,955.17,539.9Z" transform="translate(-935.11 -523.69)"/><path class="cls-9" d="M955.54,539.89c-.09.11,0,.17.08.07S955.63,539.79,955.54,539.89Z" transform="translate(-935.11 -523.69)"/><path class="cls-9" d="M956,539.8c-.16,0-.13.17,0,.14S956.16,539.77,956,539.8Z" transform="translate(-935.11 -523.69)"/><path class="cls-9" d="M955.94,540.23c-.1.11,0,.21.08.1S956,540.12,955.94,540.23Z" transform="translate(-935.11 -523.69)"/><path class="cls-9" d="M955.55,540.24c-.08.13.05.21.13.07S955.64,540.11,955.55,540.24Z" transform="translate(-935.11 -523.69)"/><path class="cls-9" d="M956.55,540.51c-.08.13.05.21.13.07S956.63,540.38,956.55,540.51Z" transform="translate(-935.11 -523.69)"/><path class="cls-9" d="M956.85,540.29c-.1.12,0,.21.12.1S957,540.17,956.85,540.29Z" transform="translate(-935.11 -523.69)"/><path class="cls-9" d="M956.67,540.88c0,.15.15.16.15,0S956.67,540.72,956.67,540.88Z" transform="translate(-935.11 -523.69)"/><path class="cls-9" d="M957.05,540.75c-.05.15.09.19.14,0S957.11,540.6,957.05,540.75Z" transform="translate(-935.11 -523.69)"/><path class="cls-9" d="M957.6,540.84c-.05.15.09.19.14,0S957.65,540.69,957.6,540.84Z" transform="translate(-935.11 -523.69)"/><path class="cls-9" d="M957.3,541.06c0,.15.15.16.15,0S957.3,540.9,957.3,541.06Z" transform="translate(-935.11 -523.69)"/><path class="cls-9" d="M958.47,540.92c-.08.13.05.21.13.07S958.55,540.78,958.47,540.92Z" transform="translate(-935.11 -523.69)"/><path class="cls-9" d="M958.63,541.36c0,.15.19.11.15,0S958.59,541.21,958.63,541.36Z" transform="translate(-935.11 -523.69)"/><path class="cls-9" d="M958.83,540.61c-.08.13.05.21.13.07S958.91,540.48,958.83,540.61Z" transform="translate(-935.11 -523.69)"/><path class="cls-9" d="M959.09,541c-.11.12,0,.21.11.1S959.2,540.87,959.09,541Z" transform="translate(-935.11 -523.69)"/><path class="cls-9" d="M959.46,540.7c-.11.11,0,.21.11.1S959.57,540.59,959.46,540.7Z" transform="translate(-935.11 -523.69)"/><path class="cls-9" d="M959.28,541.44c.07.14.2.08.14-.06S959.21,541.3,959.28,541.44Z" transform="translate(-935.11 -523.69)"/><path class="cls-9" d="M959.63,541.12c-.06.14.09.2.14.05S959.68,541,959.63,541.12Z" transform="translate(-935.11 -523.69)"/><path class="cls-9" d="M960.6,542c-.14-.08-.23.07-.1.15S960.73,542.05,960.6,542Z" transform="translate(-935.11 -523.69)"/><path class="cls-9" d="M960.35,541.55c-.14-.08-.23.07-.1.15S960.49,541.62,960.35,541.55Z" transform="translate(-935.11 -523.69)"/><path class="cls-9" d="M961.21,541.5c-.14-.08-.26.09-.12.16S961.35,541.57,961.21,541.5Z" transform="translate(-935.11 -523.69)"/><path class="cls-9" d="M961.37,541c-.15,0-.2.09,0,.14S961.52,541.1,961.37,541Z" transform="translate(-935.11 -523.69)"/><path class="cls-9" d="M960.73,541.47c-.12-.06-.16.1,0,.16S960.85,541.52,960.73,541.47Z" transform="translate(-935.11 -523.69)"/><path class="cls-9" d="M961.66,541.6c-.15,0-.2.09,0,.14S961.81,541.65,961.66,541.6Z" transform="translate(-935.11 -523.69)"/><path class="cls-9" d="M961.89,541.18c-.15,0-.21.11-.06.16S962,541.23,961.89,541.18Z" transform="translate(-935.11 -523.69)"/><path class="cls-9" d="M962.56,541.61c-.1-.12-.22,0-.11.1S962.67,541.73,962.56,541.61Z" transform="translate(-935.11 -523.69)"/><path class="cls-9" d="M963.12,541.55c-.13-.08-.23.07-.09.15S963.26,541.63,963.12,541.55Z" transform="translate(-935.11 -523.69)"/><path class="cls-9" d="M963.52,541.64c-.13-.08-.23.07-.09.15S963.66,541.73,963.52,541.64Z" transform="translate(-935.11 -523.69)"/><path class="cls-9" d="M963.29,541c-.13-.08-.24.08-.11.16S963.43,541.13,963.29,541Z" transform="translate(-935.11 -523.69)"/><path class="cls-9" d="M963.6,541.22c-.13-.08-.24.08-.11.16S963.73,541.3,963.6,541.22Z" transform="translate(-935.11 -523.69)"/><path class="cls-3" d="M957.31,539.95a.45.45,0,0,0-.16.6.27.27,0,0,0,.44,0,.6.6,0,0,0,0-.54Z" transform="translate(-935.11 -523.69)"/><path class="cls-3" d="M957.55,539.51a.12.12,0,0,0,0,.24A.12.12,0,0,0,957.55,539.51Z" transform="translate(-935.11 -523.69)"/><path class="cls-3" d="M957.39,539.61a.13.13,0,0,0,0,.26A.13.13,0,0,0,957.39,539.61Z" transform="translate(-935.11 -523.69)"/><path class="cls-3" d="M957.65,539.66a.13.13,0,0,0,0,.26A.13.13,0,0,0,957.65,539.66Z" transform="translate(-935.11 -523.69)"/><path class="cls-3" d="M957.54,540c.08.12.32,0,.33-.16a.4.4,0,0,1-.29,0Z" transform="translate(-935.11 -523.69)"/><path class="cls-3" d="M957.42,539.86a.23.23,0,0,1-.21-.16.19.19,0,0,0,.22.3Z" transform="translate(-935.11 -523.69)"/><path class="cls-3" d="M957.44,540.07c-.09,0-.09-.16-.08-.22s.31-.06.27.09S957.53,540.09,957.44,540.07Z" transform="translate(-935.11 -523.69)"/><line class="cls-6" x1="20.12" y1="16.21" x2="19.94" y2="16.12"/><line class="cls-6" x1="20.06" y1="15.74" x2="20.19" y2="15.92"/><line class="cls-6" x1="20.56" y1="15.67" x2="20.58" y2="15.88"/><line class="cls-6" x1="20.46" y1="16.22" x2="20.32" y2="16.11"/><line class="cls-6" x1="20.49" y1="16.59" x2="20.31" y2="16.48"/><line class="cls-6" x1="20.85" y1="16.58" x2="20.69" y2="16.44"/><line class="cls-6" x1="20.89" y1="16.15" x2="20.84" y2="15.94"/><line class="cls-6" x1="20.23" y1="15.89" x2="20.22" y2="15.69"/><line class="cls-6" x1="21.5" y1="16.86" x2="21.31" y2="16.77"/><line class="cls-6" x1="21.65" y1="16.52" x2="21.77" y2="16.64"/><line class="cls-6" x1="21.48" y1="17.22" x2="21.63" y2="17.2"/><line class="cls-6" x1="21.64" y1="17.16" x2="21.44" y2="17.09"/><line class="cls-6" x1="21.81" y1="17.09" x2="21.98" y2="17.1"/><line class="cls-6" x1="22" y1="17.06" x2="21.84" y2="16.92"/><line class="cls-6" x1="22.36" y1="17.12" x2="22.59" y2="17.15"/><line class="cls-6" x1="22.24" y1="17.35" x2="22.02" y2="17.35"/><line class="cls-6" x1="23.19" y1="17.27" x2="23.39" y2="17.3"/><line class="cls-6" x1="23.43" y1="17.22" x2="23.26" y2="17.09"/><line class="cls-6" x1="23.6" y1="16.88" x2="23.77" y2="16.95"/><line class="cls-6" x1="24.22" y1="16.97" x2="24.39" y2="17.05"/><line class="cls-6" x1="23.78" y1="17.32" x2="23.98" y2="17.37"/><line class="cls-6" x1="24.03" y1="17.3" x2="23.89" y2="17.17"/><line class="cls-6" x1="24.34" y1="17.4" x2="24.58" y2="17.45"/><line class="cls-6" x1="24.04" y1="17.78" x2="24.23" y2="17.72"/><line class="cls-6" x1="25.18" y1="17.92" x2="25.15" y2="17.72"/><line class="cls-6" x1="25.43" y1="18.35" x2="25.43" y2="18.13"/><line class="cls-6" x1="25.67" y1="18.24" x2="25.48" y2="18.35"/><line class="cls-6" x1="26.03" y1="17.87" x2="26.06" y2="17.67"/><line class="cls-6" x1="26.09" y1="17.88" x2="26.34" y2="17.75"/><line class="cls-6" x1="26.55" y1="17.97" x2="26.71" y2="17.88"/><line class="cls-6" x1="26.77" y1="17.56" x2="26.9" y2="17.41"/><line class="cls-6" x1="26.25" y1="17.43" x2="26.39" y2="17.25"/><line class="cls-6" x1="27.41" y1="17.97" x2="27.54" y2="17.82"/><line class="cls-6" x1="27.98" y1="17.7" x2="27.92" y2="17.91"/><line class="cls-6" x1="27.97" y1="17.94" x2="28.11" y2="17.82"/><line class="cls-6" x1="28.36" y1="18.02" x2="28.52" y2="17.87"/><line class="cls-6" x1="28.41" y1="17.62" x2="28.55" y2="17.47"/><line class="cls-6" x1="28.14" y1="17.44" x2="28.22" y2="17.21"/><path class="cls-10" d="M957.14,534.43c-.13-.09-.1-.21.13-.37s.38-.34.37-.49,0-.18.09,0a.59.59,0,0,1,0,.32,1.08,1.08,0,0,0,.14-.53c0-.11.08-.21.11,0a.93.93,0,0,1,0,.33l.18-.09a1.35,1.35,0,0,0,.06-.31c0-.18.07-.27.1-.12a1.92,1.92,0,0,1,0,.33.48.48,0,0,0,.18-.2c.06-.14.11-.27.14,0a.63.63,0,0,1,0,.16c.31-.17.74.16,1,.11s.21,0,.13.06l-.13.08a1,1,0,0,1,.56.5.65.65,0,0,0-.53-.82c-.31,0-.67-.08-.48-.44a.54.54,0,0,1,.56-.34c.07-.16.29-.24.76-.21a4.26,4.26,0,0,1,1.74.44c.53.29.85.44,1.14.31a.63.63,0,0,1-.14.27,4.06,4.06,0,0,1,1.81,2c.13.41.23.84.6.9a.42.42,0,0,1-.21.09,3.68,3.68,0,0,1,0,1.67c-.12.42,0,1.17-.15,1.67s-.18.15-.18-.06c0-.59-.13-.77-.12-2a.8.8,0,0,0-.2-.46,13.89,13.89,0,0,1,.05,2.35c-.06.32-.15,0-.18-.44a11.44,11.44,0,0,0-.24-1.2,1.2,1.2,0,0,0-.15-.43c0,.46.18,1.36.13,1.83s-.15.06-.15-.11A7.71,7.71,0,0,0,964,538a1.43,1.43,0,0,0-.25-.52,5.57,5.57,0,0,1,.15,1c0,.2,0,.3-.1.17a1.67,1.67,0,0,1-.19-.68,1,1,0,0,0-.43-.64,3.83,3.83,0,0,1,.31.84c.05.22,0,.26-.06.17a3.72,3.72,0,0,1-.26-.54.83.83,0,0,0-.45-.5.85.85,0,0,1-.42-.29,4.15,4.15,0,0,1,.59.82c.12.25.09.29,0,.19a1.18,1.18,0,0,1-.27-.34c-.23-.38-.28-.29-.43-.33a.81.81,0,0,1-.49-.33.26.26,0,0,1-.14.09,2.44,2.44,0,0,1,.31,1.07c.51.37,1.76,1.16,2.52,1.67.36.24.07.35-.2.36a.63.63,0,0,1-.37,0,.43.43,0,0,1-.61.14.36.36,0,0,1-.55,0,.27.27,0,0,1-.39,0l-.49-.44c0,.37-.11.16-.16,0,0,.4-.12.32-.2.19-.06.32-.21.34-.31.19L961,540c-.07.39-.21.28-.27.15a4.24,4.24,0,0,0-.32-.48c-.06.07-.15,0-.31-.28l-.14-.18c0,.5-.19.46-.32.3a2.1,2.1,0,0,1-.65.2c-.27,0-.28-.09-.18-.22-.34,0-.63-.11-.64-.23s.43-.36.68-.52c-.22-.18-.32-.37-.28-.41s.22,0,.37.09c-.21-.24-.48-.68-.42-.82l-.15-.16c-.09.06-.21.07-.18-.07s-.19-.51-.21-.78.18-.4.26-.67c-.06,0-.08-.06-.06-.13s.25-.31.32-.52c-.1,0-.12,0-.05-.09a.87.87,0,0,0,.15-.35c-.05,0-.07,0-.07,0s-.06-.11-.12-.13A5,5,0,0,1,957.14,534.43Z" transform="translate(-935.11 -523.69)"/><path class="cls-6" d="M957.89,534a1.65,1.65,0,0,0,.41-.25c.11-.09.28-.21.28,0s-.28.39-.56.42" transform="translate(-935.11 -523.69)"/><path class="cls-6" d="M958.69,533.53a1.32,1.32,0,0,1,.76.28c.11.11.12.24-.17.22" transform="translate(-935.11 -523.69)"/><path class="cls-6" d="M958.6,533.72a2.1,2.1,0,0,1,.64.31c.14.11.12.21-.15.15a1.93,1.93,0,0,1-.59-.22" transform="translate(-935.11 -523.69)"/><path class="cls-6" d="M959.58,533.72a1.93,1.93,0,0,1,.61.83c.06.2,0,.49,0,.4a.42.42,0,0,0-.27-.12" transform="translate(-935.11 -523.69)"/><path class="cls-6" d="M959.51,534a1.19,1.19,0,0,1,.34,1c-.06.33-.18.14-.29,0a1,1,0,0,1-.35-.8" transform="translate(-935.11 -523.69)"/><path class="cls-6" d="M958.21,534.26c.24-.08.63-.05.59.11s-.4,0-.56,0" transform="translate(-935.11 -523.69)"/><path class="cls-6" d="M958.75,534.08a.2.2,0,0,1-.11.14" transform="translate(-935.11 -523.69)"/><path class="cls-6" d="M958.73,534.43c.1.18.34.28.48,0" transform="translate(-935.11 -523.69)"/><path class="cls-6" d="M959.14,536.22a1,1,0,0,0,.18,1c.26.22.33.24.41.11a.79.79,0,0,0,.06-.59,1.07,1.07,0,0,1,0-.64" transform="translate(-935.11 -523.69)"/><path class="cls-6" d="M959.19,537a.41.41,0,0,1-.12.28c-.08.06-.12.05-.15-.06a1.3,1.3,0,0,1-.1-1.1" transform="translate(-935.11 -523.69)"/><path class="cls-6" d="M958.59,536.12c-.34.62,0,.77,0,1s.1.15.14.09a.58.58,0,0,0,.07-.33" transform="translate(-935.11 -523.69)"/><path class="cls-6" d="M959.39,535a1.56,1.56,0,0,0-.32,1.06c.05.22.22.31.34.17a1.19,1.19,0,0,0,.23-.36" transform="translate(-935.11 -523.69)"/><path class="cls-6" d="M959.66,535.23c-.1.41-.08.65.09.81s.22,0,.28-.11a1.86,1.86,0,0,0,.12-1" transform="translate(-935.11 -523.69)"/><path class="cls-6" d="M958.78,535.21a4.87,4.87,0,0,0-.19.74c0,.14,0,.26.17.19a.49.49,0,0,0,.31-.36" transform="translate(-935.11 -523.69)"/><path class="cls-6" d="M958.68,537.25c.09.11.22.2.3.31s.18-.09.18-.39" transform="translate(-935.11 -523.69)"/><path class="cls-6" d="M958.93,538a2.09,2.09,0,0,0,.09.76c.07.14.22.35.41.06" transform="translate(-935.11 -523.69)"/><path class="cls-6" d="M960.11,535.69c0,.37.3.6.2,1.09,0,.21-.13.36-.5.06" transform="translate(-935.11 -523.69)"/><path class="cls-6" d="M960.14,535.52c0,.14.12.24.22.35s.15.11.21-.17a1.88,1.88,0,0,0,0-.83" transform="translate(-935.11 -523.69)"/><path class="cls-6" d="M960.33,536.48c.2.07.34,0,.34-.14a.72.72,0,0,0-.17-.45" transform="translate(-935.11 -523.69)"/><path class="cls-6" d="M957.32,534.35c0,.07.13.07.23.05a.31.31,0,0,0,.25-.21c0-.11,0-.21-.11-.21" transform="translate(-935.11 -523.69)"/><path class="cls-6" d="M957.39,534.23c0,.06.21.15.3-.11" transform="translate(-935.11 -523.69)"/><path class="cls-6" d="M957.46,534.17s.06,0,.1,0,.07-.14,0-.12" transform="translate(-935.11 -523.69)"/><path class="cls-6" d="M962.38,533.1a.56.56,0,0,1,.11.34c0,.09-.08.14-.17,0a.53.53,0,0,0-.26-.17" transform="translate(-935.11 -523.69)"/><path class="cls-6" d="M961.83,532.86a.68.68,0,0,1,.21.35c0,.1-.05.25-.17.16s-.17-.15-.25-.21" transform="translate(-935.11 -523.69)"/><path class="cls-6" d="M961.37,532.81a.71.71,0,0,1,.25.33c0,.12.06.24-.17.15a4.47,4.47,0,0,0-1.07-.21" transform="translate(-935.11 -523.69)"/><path class="cls-6" d="M960.84,532.79c.35.05.36.43.53.48" transform="translate(-935.11 -523.69)"/><path class="cls-6" d="M961.56,533.67a5,5,0,0,1,.84.26c.12.06.28.14.34,0s.17-.22.12-.34" transform="translate(-935.11 -523.69)"/><path class="cls-6" d="M962.62,534a.5.5,0,0,1-.15.56" transform="translate(-935.11 -523.69)"/><path class="cls-6" d="M961.66,534.18a1,1,0,0,1,.72.3.39.39,0,0,1-.07.62" transform="translate(-935.11 -523.69)"/><path class="cls-6" d="M962.86,533.82a8.28,8.28,0,0,1,1.57,1.92c.15.38,0,.54-.34.16s-1.15-1.29-1.44-1.64" transform="translate(-935.11 -523.69)"/><path class="cls-6" d="M962.46,534.95a13,13,0,0,0,1.08,1.19c.23.17.41.29.37-.41" transform="translate(-935.11 -523.69)"/><path class="cls-6" d="M962.24,535.43a8.14,8.14,0,0,0,1,.91c.23.14.35.2.31-.19" transform="translate(-935.11 -523.69)"/><path class="cls-6" d="M960.88,536.11c.21.27.45.61.54.7a.41.41,0,0,1,.07.34c0,.11-.06.1-.18.07" transform="translate(-935.11 -523.69)"/><path class="cls-6" d="M960.92,535.63c.15.19.15.35-.07.38" transform="translate(-935.11 -523.69)"/><path class="cls-6" d="M961,535.73a.34.34,0,0,0,.37-.36" transform="translate(-935.11 -523.69)"/><path class="cls-6" d="M961.18,535.29c.26.22.55-.18.37-.39" transform="translate(-935.11 -523.69)"/><path class="cls-6" d="M961.39,534.88c.26,0,.35-.2.17-.5" transform="translate(-935.11 -523.69)"/><path class="cls-6" d="M961.36,534.39c.31,0,.4-.31.12-.62" transform="translate(-935.11 -523.69)"/><path class="cls-6" d="M961.29,533.83s.07-.07.15-.06.15-.05.1-.18a.62.62,0,0,1-.08-.28" transform="translate(-935.11 -523.69)"/><path class="cls-6" d="M959.34,533.08c.18,0,.43-.14.61,0" transform="translate(-935.11 -523.69)"/><path class="cls-6" d="M959.93,533.3a.67.67,0,0,1,.51,0" transform="translate(-935.11 -523.69)"/><path class="cls-6" d="M960.38,533.57a.46.46,0,0,1,.54.25" transform="translate(-935.11 -523.69)"/><path class="cls-6" d="M960.54,534a.37.37,0,0,1,.45.21" transform="translate(-935.11 -523.69)"/><path class="cls-6" d="M960.58,534.36c.25,0,.48.19.45.38" transform="translate(-935.11 -523.69)"/><path class="cls-6" d="M958.52,537.31c.18.21.81.85,1,1.06s.15.13.2-.1" transform="translate(-935.11 -523.69)"/><path class="cls-6" d="M959.1,537.57a4.8,4.8,0,0,0,.87.84c.26.14.22,0,.22-.34" transform="translate(-935.11 -523.69)"/><path class="cls-6" d="M959.73,537.29a2.47,2.47,0,0,0,.65.93c.26.19.28,0,.26-.2a3,3,0,0,0-.42-1" transform="translate(-935.11 -523.69)"/><path class="cls-6" d="M959.27,538.4c.09.1.29.09.2-.1" transform="translate(-935.11 -523.69)"/><path class="cls-6" d="M959.67,538.44a4.19,4.19,0,0,0,.92,1c.16.12.17.09.21-.09" transform="translate(-935.11 -523.69)"/><path class="cls-6" d="M960.16,538.46a2.85,2.85,0,0,0,.69.92c.19.11.25.12.26-.16" transform="translate(-935.11 -523.69)"/><path class="cls-6" d="M960.6,538.3a3.5,3.5,0,0,0,.54,1c.18.18.26.1.26-.2" transform="translate(-935.11 -523.69)"/><path class="cls-6" d="M960.65,536.45a3.64,3.64,0,0,1,.4,1.27c0,.35,0,.36-.44.11" transform="translate(-935.11 -523.69)"/><path class="cls-6" d="M960.87,536.25a3.69,3.69,0,0,1,.45,1.11c0,.26,0,.33-.26.22" transform="translate(-935.11 -523.69)"/><path class="cls-6" d="M961.29,537.62a5.32,5.32,0,0,1,.32,1.27c0,.23,0,.51-.26.05A8.41,8.41,0,0,1,961,538" transform="translate(-935.11 -523.69)"/><path class="cls-6" d="M961.49,537.21a4,4,0,0,1,.32,1.32c0,.41,0,.72-.2.39" transform="translate(-935.11 -523.69)"/><path class="cls-6" d="M961.31,536.43c.32-.17.34-.48-.13-.73" transform="translate(-935.11 -523.69)"/><path class="cls-6" d="M961.55,536.06c.37-.14.6-.43-.07-.74" transform="translate(-935.11 -523.69)"/><path class="cls-6" d="M961.88,535.61a.37.37,0,0,0,.39-.36c0-.18-.15-.41-.65-.44" transform="translate(-935.11 -523.69)"/><path class="cls-6" d="M961.77,536.72c.31.09.55.16.49-.35" transform="translate(-935.11 -523.69)"/><path class="cls-6" d="M961.85,535.89c.26.29.38.5.69.56s.34,0,.2-.52" transform="translate(-935.11 -523.69)"/><path class="cls-6" d="M957.75,533.88a.2.2,0,0,1-.08.11c-.11.07-.46.34-.34.48" transform="translate(-935.11 -523.69)"/><path class="cls-6" d="M957.75,533.88a.8.8,0,0,1,.27-.23" transform="translate(-935.11 -523.69)"/><path class="cls-6" d="M958,534a1.63,1.63,0,0,0,.17-.39" transform="translate(-935.11 -523.69)"/><path class="cls-6" d="M958.39,533.47a1.36,1.36,0,0,1,0,.25" transform="translate(-935.11 -523.69)"/><path class="cls-6" d="M960.23,534.18c.15.24.26.48.43.58s-.07.12-.11.11a.5.5,0,0,1-.36-.26" transform="translate(-935.11 -523.69)"/><path class="cls-6" d="M959.67,533.68a.54.54,0,0,1-.28.07" transform="translate(-935.11 -523.69)"/><path class="cls-6" d="M958.71,533.42a.79.79,0,0,1-.12.31" transform="translate(-935.11 -523.69)"/><path class="cls-6" d="M962.46,533.5a.57.57,0,0,0,.81-.1" transform="translate(-935.11 -523.69)"/><path class="cls-6" d="M963.22,537.29a1.36,1.36,0,0,1-.43-.59" transform="translate(-935.11 -523.69)"/><path class="cls-6" d="M963.79,537.47a4.42,4.42,0,0,0-.27-.36" transform="translate(-935.11 -523.69)"/><path class="cls-6" d="M964.33,537.49c-.11-.21-.27-.38-.38-.57" transform="translate(-935.11 -523.69)"/><path class="cls-6" d="M964.84,537.21a1.17,1.17,0,0,1-.25-.4" transform="translate(-935.11 -523.69)"/><path class="cls-6" d="M965.48,536.41a1.14,1.14,0,0,1-1-.6" transform="translate(-935.11 -523.69)"/><path class="cls-6" d="M959.78,532.58a.34.34,0,0,0,0,.16c0,.26.18.3.46.45.59.32.64.24.78,1.06a.94.94,0,0,1-.38,1.1,1.72,1.72,0,0,0,.23.7c.07.11.08.24-.15.24" transform="translate(-935.11 -523.69)"/><path class="cls-6" d="M961.72,537c.11-.16,0-.45-.23-.66" transform="translate(-935.11 -523.69)"/><path class="cls-6" d="M961.49,536.93l.09.14" transform="translate(-935.11 -523.69)"/><path class="cls-6" d="M961.82,538.89a2.38,2.38,0,0,0,.07-.75" transform="translate(-935.11 -523.69)"/><path class="cls-6" d="M962.69,540.27l-.91-.81" transform="translate(-935.11 -523.69)"/><path class="cls-6" d="M963.24,540.27c-.21-.16-1.1-.94-1.46-1.23" transform="translate(-935.11 -523.69)"/><path class="cls-6" d="M963.85,540.12a22,22,0,0,1-2-1.51" transform="translate(-935.11 -523.69)"/><path class="cls-6" d="M961.39,539.14c.11.33.2.57.26.71" transform="translate(-935.11 -523.69)"/><path class="cls-6" d="M961,540l-.3-.49" transform="translate(-935.11 -523.69)"/><path class="cls-6" d="M961.45,540c-.08-.14-.24-.37-.39-.6" transform="translate(-935.11 -523.69)"/><path class="cls-6" d="M961.81,539.82c0-.37,0-.6-.06-.76" transform="translate(-935.11 -523.69)"/><path class="cls-6" d="M958.82,539.5l.1-.11a1,1,0,0,1,.55-.28" transform="translate(-935.11 -523.69)"/><path class="cls-6" d="M959.65,539.53l-.08-.12a1.49,1.49,0,0,1-.12-.79" transform="translate(-935.11 -523.69)"/><path class="cls-6" d="M960.42,539.69a.71.71,0,0,0,.09-.29" transform="translate(-935.11 -523.69)"/><path class="cls-6" d="M958.85,538.75a1.38,1.38,0,0,0,.26.16" transform="translate(-935.11 -523.69)"/><path class="cls-6" d="M958.53,537.61c.55.57,1.13,1.23,1.44,1.62" transform="translate(-935.11 -523.69)"/><path class="cls-6" d="M958.38,537.45l0,0a.53.53,0,0,0,.17-.28" transform="translate(-935.11 -523.69)"/><path class="cls-6" d="M958.25,535.93h.07a.45.45,0,0,0,.31-.17" transform="translate(-935.11 -523.69)"/><path class="cls-6" d="M958.51,535.27h0A.69.69,0,0,0,959,535" transform="translate(-935.11 -523.69)"/><path class="cls-6" d="M958.61,534.84l.06,0a.32.32,0,0,0,.1-.3" transform="translate(-935.11 -523.69)"/><path class="cls-11" d="M957.09,534.39c-.09,0-.22.08-.15.18a.53.53,0,0,0-.19.77c.12.18.45.17.53.16a.45.45,0,0,1-.16-.53c.08-.1.25-.3.66.12a.75.75,0,0,1,.39-.24c.16,0,.32-.15.22-.28s-.66.07-.83-.05S957.19,534.52,957.09,534.39Z" transform="translate(-935.11 -523.69)"/><path class="cls-6" d="M958.17,534.86c0-.13-.09-.16-.25-.14a.8.8,0,0,0-.36.18" transform="translate(-935.11 -523.69)"/><path class="cls-6" d="M956.94,534.57c0,.06.23.09.23-.12" transform="translate(-935.11 -523.69)"/><path class="cls-5" d="M961.11,540.17c.05.18-.27.31-.45.25s-.38,0-.38.23.09.23.24.26a.29.29,0,0,0,.26.3.3.3,0,0,0,.31-.29c.23,0,.56-.19.8,0,.07.18.26.21.49.09a.21.21,0,0,0-.07-.4,1,1,0,0,1-.86-.54C961.39,540.33,961.25,540.42,961.11,540.17Z" transform="translate(-935.11 -523.69)"/><path class="cls-6" d="M960.52,540.92c0-.14.37-.21.42-.29a.61.61,0,0,1,.28-.17" transform="translate(-935.11 -523.69)"/><path class="cls-6" d="M961.21,540.3a1.11,1.11,0,0,1,0,.21s0,.1.16.09.21,0,.19-.1a2.46,2.46,0,0,1,0-.36" transform="translate(-935.11 -523.69)"/><path class="cls-6" d="M961.09,540.92a.32.32,0,0,0,.31-.22" transform="translate(-935.11 -523.69)"/><path class="cls-6" d="M961.38,540.89a.27.27,0,0,0,.21-.19" transform="translate(-935.11 -523.69)"/><path class="cls-6" d="M961.61,540.84a.15.15,0,0,0,.15-.15" transform="translate(-935.11 -523.69)"/><path class="cls-6" d="M961,540.54c-.06,0,0,.14.11.19" transform="translate(-935.11 -523.69)"/><path class="cls-6" d="M960.83,540.69c-.07,0,0,.22.1.24" transform="translate(-935.11 -523.69)"/><path class="cls-6" d="M962.25,540.58c-.11,0-.27,0-.3,0" transform="translate(-935.11 -523.69)"/><path class="cls-2" d="M960.51,541.4c-.29-.12-.23-.43,0-.47s.22.09.22.18S960.42,541.23,960.51,541.4Z" transform="translate(-935.11 -523.69)"/><path class="cls-2" d="M960,541a.26.26,0,0,1,.16-.46.16.16,0,0,1,.12.28C960.26,540.85,960,540.73,960,541Z" transform="translate(-935.11 -523.69)"/><path class="cls-2" d="M962.37,541.32c.32,0,.34-.26.26-.4a.19.19,0,0,0-.28-.08s-.11.17,0,.23S962.45,541.22,962.37,541.32Z" transform="translate(-935.11 -523.69)"/><path class="cls-6" d="M960.62,540.41c.08,0,.14.06.14.1" transform="translate(-935.11 -523.69)"/><path class="cls-5" d="M958.42,538.85c.15.06.57.18,1,.29a1,1,0,0,0-.37.17c-.25-.06-.69-.13-.93-.16-.15.14-.22.15-.27.09a1.42,1.42,0,0,0-.31-.19.28.28,0,0,1-.16.06c-.08.07-.14.09-.2.07s-.13.15-.24,0a.57.57,0,0,1-.17-.38.14.14,0,0,1,.13-.15.22.22,0,0,1,.24-.18.28.28,0,0,1,.33-.2c.22,0,.73-.1.85,0S958.58,538.7,958.42,538.85Z" transform="translate(-935.11 -523.69)"/><path class="cls-6" d="M956.85,538.69c0,.05.06.11.1.24a.41.41,0,0,0,.18.24" transform="translate(-935.11 -523.69)"/><path class="cls-6" d="M957.09,538.51a.25.25,0,0,0,0,.11,1.7,1.7,0,0,1,.1.32c0,.08.05.16.14.16" transform="translate(-935.11 -523.69)"/><path class="cls-6" d="M958,539a.26.26,0,0,1-.18-.27c0-.1-.17-.17-.31-.09s-.2.26,0,.36l.06,0" transform="translate(-935.11 -523.69)"/><path class="cls-6" d="M958.42,538.85l-.34.3" transform="translate(-935.11 -523.69)"/><path class="cls-2" d="M957.35,539.1a.29.29,0,0,0,.41.1,3,3,0,0,0-.27-.16A.28.28,0,0,1,957.35,539.1Z" transform="translate(-935.11 -523.69)"/><path class="cls-2" d="M957.16,539.18a.31.31,0,0,0,.41.07.29.29,0,0,1-.22-.15h0A.2.2,0,0,1,957.16,539.18Z" transform="translate(-935.11 -523.69)"/><path class="cls-2" d="M957,539.28a.2.2,0,0,0,.28,0s-.13-.05-.14-.11h0S957.08,539.28,957,539.28Z" transform="translate(-935.11 -523.69)"/><path class="cls-2" d="M957.7,538.23c-.33,0-.41.24-.4.45s.1.12.21.1.12-.07.08-.2A.3.3,0,0,1,957.7,538.23Z" transform="translate(-935.11 -523.69)"/><path class="cls-5" d="M956.59,533.65a.41.41,0,0,1,0,.5c0-.1,0-.28-.06-.36Z" transform="translate(-935.11 -523.69)"/><path class="cls-9" d="M956.66,535.09c-.64.25-.79-.12-.8-.25a1.28,1.28,0,0,0-.09-.42.32.32,0,0,1,.15-.47,3.93,3.93,0,0,0,.53-.36c.11-.09.22-.16.15.06a1.08,1.08,0,0,1-.22.41c-.12.11-.2.24-.1.32s.39-.06.52-.2c0,.07-.09.21-.21.24s-.37.09-.35.19.32,0,.57,0A.5.5,0,0,0,956.66,535.09Z" transform="translate(-935.11 -523.69)"/><path class="cls-9" d="M957.8,538.85a.6.6,0,0,0,.4-.88c-.29-.7-1.16-.19-1.38-.49s-.24-.69.53-1.25.68-.91.43-1.14c-.06-.07-.27-.26-.44-.26a.27.27,0,0,0-.25.31c.2.14.28.41.07.56-.67.49-1.31,1-1,1.85a.85.85,0,0,0,1,.55c.34,0,.64,0,.53.2a.55.55,0,0,1-.1.13.55.55,0,0,0,0,.17.2.2,0,0,1,.16.06C957.8,538.73,957.78,538.81,957.8,538.85Z" transform="translate(-935.11 -523.69)"/><path class="cls-8" d="M956.72,536.84c-.13.22-.07.41.1.65s1.08-.21,1.38.49a.6.6,0,0,1-.4.88s0-.12,0-.18a.2.2,0,0,0-.16-.06.55.55,0,0,1,0-.17.55.55,0,0,0,.1-.13c.11-.21-.21-.19-.55-.2C956.35,538.08,956.41,537.21,956.72,536.84Z" transform="translate(-935.11 -523.69)"/><path class="cls-8" d="M957.11,535a.28.28,0,0,1,.23-.17c.17,0,.38.19.44.26.23.22.31.57-.34,1.08A.68.68,0,0,0,957.11,535Z" transform="translate(-935.11 -523.69)"/><path class="cls-9" d="M957,539.28c-.48.38-.88.12-1-.41-.07-.36-.16-.43-.46-.64-.46-.31-.27-.71-.15-1s0-.45-.26-.56-.73-.37,0-.36a.73.73,0,0,1,.62,1c-.13.26-.18.46.23.61s.29.74.57.9a.29.29,0,0,0,.15,0C956.76,539.07,956.87,539.25,957,539.28Z" transform="translate(-935.11 -523.69)"/><path class="cls-8" d="M954.9,536.3a.11.11,0,0,0,0-.2c-.16,0-.17.09-.26.12s-.15.07,0,.16,0,.19.17.23a.11.11,0,0,0,.14-.16A.13.13,0,0,1,954.9,536.3Z" transform="translate(-935.11 -523.69)"/><path class="cls-8" d="M955.08,536.34a.11.11,0,0,0,0-.2c-.16,0-.17.09-.26.12s-.15.07,0,.16,0,.19.17.23a.11.11,0,0,0,.14-.16A.13.13,0,0,1,955.08,536.34Z" transform="translate(-935.11 -523.69)"/><path class="cls-8" d="M955.26,536.39a.11.11,0,0,0,0-.2c-.16,0-.17.09-.26.12s-.15.07,0,.16,0,.19.17.23a.11.11,0,0,0,.14-.16A.14.14,0,0,1,955.26,536.39Z" transform="translate(-935.11 -523.69)"/><path class="cls-6" d="M957.11,535a.68.68,0,0,1,.34,1.17" transform="translate(-935.11 -523.69)"/><path class="cls-6" d="M957.22,535.67a.88.88,0,0,0,.07.61" transform="translate(-935.11 -523.69)"/><path class="cls-6" d="M957.27,536.29l-.64-.15" transform="translate(-935.11 -523.69)"/><path class="cls-6" d="M957,535.85a1.83,1.83,0,0,0,0,.66" transform="translate(-935.11 -523.69)"/><path class="cls-6" d="M956.9,535.91c.11,0,.67.12.72,0" transform="translate(-935.11 -523.69)"/><path class="cls-6" d="M957.29,535.51c0,.13.38.43.24.58" transform="translate(-935.11 -523.69)"/><path class="cls-6" d="M957.2,535.69c.08,0,.48-.09.42-.25" transform="translate(-935.11 -523.69)"/><path class="cls-6" d="M956.62,536.15a2.55,2.55,0,0,0,.15.6" transform="translate(-935.11 -523.69)"/><path class="cls-6" d="M956.37,536.4c.13,0,.49.14.62.11" transform="translate(-935.11 -523.69)"/><path class="cls-6" d="M956.12,536.84c0-.1.6,0,.67-.11" transform="translate(-935.11 -523.69)"/><path class="cls-6" d="M956.34,536.43c-.06.08.19.38.28.54" transform="translate(-935.11 -523.69)"/><path class="cls-6" d="M956.11,536.86c0,.11.42.32.4.41" transform="translate(-935.11 -523.69)"/><path class="cls-6" d="M956.09,537.35c0-.13.47-.3.54-.39" transform="translate(-935.11 -523.69)"/><path class="cls-6" d="M956.21,537.7c-.07-.16.29-.4.33-.51" transform="translate(-935.11 -523.69)"/><path class="cls-6" d="M956.1,537.39c.05-.05.37,0,.4.21" transform="translate(-935.11 -523.69)"/><path class="cls-6" d="M956.53,537.24s.14,0,.17,0" transform="translate(-935.11 -523.69)"/><path class="cls-6" d="M956.51,537.44s.27,0,.31,0" transform="translate(-935.11 -523.69)"/><path class="cls-6" d="M956.55,537.71c0-.08.18-.24.3-.18" transform="translate(-935.11 -523.69)"/><path class="cls-6" d="M956.65,537.91c0-.08.15-.37.26-.35" transform="translate(-935.11 -523.69)"/><path class="cls-6" d="M956.83,538c-.06,0,.12-.45.25-.45" transform="translate(-935.11 -523.69)"/><path class="cls-6" d="M957.05,538.1c-.07,0,.07-.51.23-.51" transform="translate(-935.11 -523.69)"/><path class="cls-6" d="M957.23,538.11c-.09,0,0-.52.21-.53" transform="translate(-935.11 -523.69)"/><path class="cls-6" d="M957.43,538.12c-.1,0,0-.54.16-.54" transform="translate(-935.11 -523.69)"/><path class="cls-6" d="M957.56,538.14c-.09,0,.07-.56.19-.53" transform="translate(-935.11 -523.69)"/><path class="cls-6" d="M957.67,538.18c-.08-.08.17-.55.25-.51" transform="translate(-935.11 -523.69)"/><path class="cls-6" d="M957.7,538.22c0-.05.35-.49.4-.41" transform="translate(-935.11 -523.69)"/><path class="cls-6" d="M957.69,538.29c0-.07.54-.26.56-.19" transform="translate(-935.11 -523.69)"/><path class="cls-6" d="M957.65,538.36c0-.06.64-.11.62,0" transform="translate(-935.11 -523.69)"/><path class="cls-6" d="M957.61,538.41s.66,0,.6.11" transform="translate(-935.11 -523.69)"/><path class="cls-6" d="M957.58,538.48c.13,0,.59.12.54.17" transform="translate(-935.11 -523.69)"/><path class="cls-6" d="M957.59,538.57c.2,0,.46.14.4.19" transform="translate(-935.11 -523.69)"/><path class="cls-6" d="M956.23,537.75c0,.07.24,0,.31,0" transform="translate(-935.11 -523.69)"/><path class="cls-6" d="M956.4,538c.05,0,.19,0,.26,0" transform="translate(-935.11 -523.69)"/><path class="cls-6" d="M957.29,535.46c0-.09.12-.19.22-.22" transform="translate(-935.11 -523.69)"/><path class="cls-6" d="M957.61,535.41a1.24,1.24,0,0,1-.41-.16" transform="translate(-935.11 -523.69)"/><path class="cls-6" d="M957.28,535c.05-.05.18-.19.24-.16" transform="translate(-935.11 -523.69)"/><path class="cls-6" d="M957.46,535.17c.06-.07.18-.22.25-.16" transform="translate(-935.11 -523.69)"/><path class="cls-6" d="M957.56,535.31c.08-.07.24-.2.29-.14" transform="translate(-935.11 -523.69)"/><path class="cls-6" d="M957.62,535.43c.1-.08.3-.18.32-.08" transform="translate(-935.11 -523.69)"/><path class="cls-6" d="M957.67,535.59c.13-.07.29-.16.27-.09" transform="translate(-935.11 -523.69)"/><path class="cls-6" d="M957.68,535.74c.11-.05.24-.1.21-.05" transform="translate(-935.11 -523.69)"/><path class="cls-6" d="M957.66,535.87l.13,0" transform="translate(-935.11 -523.69)"/><path class="cls-6" d="M956.76,534.65c-.12,0-.36.52-.48.51" transform="translate(-935.11 -523.69)"/><path class="cls-6" d="M956.08,535.13c-.08,0,.2-.43.37-.45" transform="translate(-935.11 -523.69)"/><path class="cls-6" d="M955.86,534.79c0-.11.25-.23.4-.21" transform="translate(-935.11 -523.69)"/><path class="cls-6" d="M956.26,534.59c-.12,0-.25.31,0,.58" transform="translate(-935.11 -523.69)"/><path class="cls-6" d="M956.3,534.67c-.07.12.19.38.31.43" transform="translate(-935.11 -523.69)"/><path class="cls-6" d="M956.21,539.27c.07.09.46-.11.57-.2" transform="translate(-935.11 -523.69)"/><path class="cls-6" d="M956.59,538.85c.07,0-.16.6,0,.6" transform="translate(-935.11 -523.69)"/><path class="cls-6" d="M956.45,538.71c.08.21-.3.45-.26.54" transform="translate(-935.11 -523.69)"/><path class="cls-6" d="M956.36,538.46c0,.1-.33.43-.28.56" transform="translate(-935.11 -523.69)"/><path class="cls-6" d="M956.11,538c.07.05-.23.41-.16.58" transform="translate(-935.11 -523.69)"/><path class="cls-6" d="M955.71,538.32c.08.06.54-.16.61,0" transform="translate(-935.11 -523.69)"/><path class="cls-6" d="M956,538.88c0,.08.35.1.59,0" transform="translate(-935.11 -523.69)"/><path class="cls-6" d="M956,538.61a.37.37,0,0,0,.47.08" transform="translate(-935.11 -523.69)"/><path class="cls-6" d="M955.93,537.91c-.07,0-.36.31-.28.36" transform="translate(-935.11 -523.69)"/><path class="cls-6" d="M955.42,538.09c-.07-.09.24-.36.31-.3" transform="translate(-935.11 -523.69)"/><path class="cls-6" d="M955.3,537.85c0-.14.35-.26.38-.19" transform="translate(-935.11 -523.69)"/><path class="cls-6" d="M955.31,537.56c0-.13.4-.16.38,0" transform="translate(-935.11 -523.69)"/><path class="cls-6" d="M955.39,537.29c.05-.15.42-.06.38,0" transform="translate(-935.11 -523.69)"/><path class="cls-6" d="M955.45,537.1c0-.11.37-.16.37,0" transform="translate(-935.11 -523.69)"/><path class="cls-6" d="M955.45,536.9c0-.12.3-.24.34-.09" transform="translate(-935.11 -523.69)"/><path class="cls-6" d="M955.39,536.79c-.09-.11.25-.3.32-.21" transform="translate(-935.11 -523.69)"/><path class="cls-6" d="M955.32,536.73c-.1-.06.11-.41.2-.34" transform="translate(-935.11 -523.69)"/><path class="cls-6" d="M956,534.52a.25.25,0,0,1,0-.28.61.61,0,0,0,.18-.25c0-.08,0,0-.06,0s-.08,0-.08,0a.13.13,0,0,1,.1-.11s0,0,0,.06" transform="translate(-935.11 -523.69)"/></svg>