<svg id="Identidad" xmlns="http://www.w3.org/2000/svg" xmlns:xlink="http://www.w3.org/1999/xlink" viewBox="0 0 81.44 81.51"><defs><style>.cls-1{fill:url(#Degradado_sin_nombre_104);}.cls-2,.cls-3,.cls-4,.cls-6,.cls-7,.cls-9{fill:none;}.cls-2,.cls-5,.cls-6,.cls-7,.cls-9{stroke:#fff;}.cls-2,.cls-4,.cls-5,.cls-6,.cls-7,.cls-9{stroke-miterlimit:10;}.cls-2,.cls-5,.cls-7{stroke-width:2px;}.cls-4{stroke:#000;stroke-width:4px;}.cls-5{fill:url(#Degradado_sin_nombre_151);}.cls-6{stroke-width:1.8px;}.cls-7{stroke-linecap:round;}.cls-8{fill:#fff;}.cls-9{stroke-width:2.5px;}</style><linearGradient id="Degradado_sin_nombre_104" y1="38.32" x2="74.56" y2="38.32" gradientUnits="userSpaceOnUse"><stop offset="0" stop-color="#00b2dd"/><stop offset="0.45" stop-color="#0cc"/><stop offset="0.67" stop-color="#02cccb"/><stop offset="0.77" stop-color="#09cbc6"/><stop offset="0.84" stop-color="#16cabe"/><stop offset="0.9" stop-color="#28c9b2"/><stop offset="0.96" stop-color="#3fc7a3"/><stop offset="1" stop-color="#57c594"/></linearGradient><linearGradient id="Degradado_sin_nombre_151" x1="975.01" y1="516.76" x2="975.01" y2="579.42" gradientUnits="userSpaceOnUse"><stop offset="0" stop-color="#0cc"/><stop offset="0.55" stop-color="#02cccb"/><stop offset="0.75" stop-color="#09cbc8"/><stop offset="0.89" stop-color="#14cac2"/><stop offset="1" stop-color="#25c9b9"/></linearGradient></defs><title>Identidad</title><circle class="cls-1" cx="37.28" cy="38.32" r="37.28"/><path class="cls-2" d="M971.58,502.46c-.58.29-2.39,1.51-1,4.24.58,1.17,1.71,2.38.58,3.51-.88.88-2.63.58-4.38,2.34a5.31,5.31,0,0,0-1.46,4.38s4.23,4.09,5,7.51c1.85,7.86,7.94,5.32,12.38,7.27s9.89,14.74,9.89,14.74a37.35,37.35,0,0,0,1.15-9.22" transform="translate(-919.19 -498.91)"/><path class="cls-2" d="M919.85,527c2,0,6.24.88,8.27,3.12,1.07,1.18,1,5.71,2.54,5.36,1.35-.3.7-2.34,1.55-3.43.61-.78,2,3.25,4.94,6.14,2.17,2.17,5.07,2.58,5.42,3.73.58,1.9-6.5,3.22-5.66,6.86.72,3.13,5.08,5.86,6,7.95,1.72,3.83-.62,15.36,3.13,13.49,1.93-1,12.52-19.75,12.52-25.77,0-4-13.64-.5-14.81-6.14-1.32-6.38,2.46-8.47,4.82-8.19,3,.36,1.58,4.2,3.25,3.25,1.18-.67.38-2.16.12-3.49-.65-3.32,3.06-9.89,2.32-13.19-.45-2,4-3.86,4.29-6.49.39-3.51-.87-3.7-.58-5,.58-2.63,7.16-5.41,7.16-5.41" transform="translate(-919.19 -498.91)"/><path class="cls-3" d="M994.43,547.59" transform="translate(-919.19 -498.91)"/><path class="cls-3" d="M984.39,563.15" transform="translate(-919.19 -498.91)"/><path class="cls-4" d="M986.28,521.15" transform="translate(-919.19 -498.91)"/><path class="cls-5" d="M986.59,516.76H953.25c-2.29,0-2.86,1.24-2.86,3.09v56.47c0,1.86.57,3.09,2.86,3.09h43.53c2.29,0,2.86-1.24,2.86-3.09V529.79Z" transform="translate(-919.19 -498.91)"/><polyline class="cls-6" points="81 31.25 66 31.25 66 17.73"/><line class="cls-7" x1="40.21" y1="57.82" x2="71.42" y2="57.82"/><line class="cls-7" x1="40.21" y1="64.99" x2="71.42" y2="64.99"/><line class="cls-7" x1="40.21" y1="71.93" x2="71.42" y2="71.93"/><path class="cls-8" d="M980.62,551.12a16.94,16.94,0,0,0-4.44-5.6,10.34,10.34,0,0,0-6.21-2,9.87,9.87,0,0,0-6.16,2.06,17.3,17.3,0,0,0-4.57,5.52,11.53,11.53,0,0,1,3.27-7,10.49,10.49,0,0,1,3.39-2.32A10.21,10.21,0,0,1,970,541a10.55,10.55,0,0,1,7.46,3.1A11.44,11.44,0,0,1,980.62,551.12Z" transform="translate(-919.19 -498.91)"/><circle class="cls-9" cx="969.66" cy="531.66" r="6.78" transform="translate(-920.94 -495.7) rotate(-0.19)"/></svg>